<?xml version="1.0" encoding="utf-8"?>
<!-- Generator: Adobe Illustrator 23.0.1, SVG Export Plug-In . SVG Version: 6.00 Build 0)  -->
<svg version="1.1" id="Layer_1" xmlns="http://www.w3.org/2000/svg" xmlns:xlink="http://www.w3.org/1999/xlink" x="0px" y="0px"
	 viewBox="0 0 115.2 113.5" style="enable-background:new 0 0 115.2 113.5;" xml:space="preserve">
<style type="text/css">
	.st0{fill:#FFFF33;}
	.st1{fill:#E53ED5;}
	.st2{fill:#2891DA;}
</style>
<path class="st0" d="M112.4,37.8c-0.9,1.4-1.8,3-3,4.3C93.8,58.8,78,75.5,62.3,92.3c-3.1,3.3-5.6,3.5-8.8,0.1
	C37.7,75.4,21.7,58.7,6.1,41.6c-1.4-1.6-1.6-6.1-0.3-7.9c5.5-8.2,11.6-16.1,17.8-23.8c1.3-1.6,4.1-2.7,6.3-2.7
	c18.7-0.2,37.3-0.2,56,0c2,0,4.8,0.8,5.9,2.2c6.5,8,12.6,16.4,18.8,24.7C111.2,35,111.6,36.2,112.4,37.8z M40.2,41.8
	c6.1,13.4,11.7,25.7,17.7,38.9C64,67.2,69.6,54.8,75.4,41.8C63.3,41.8,52.4,41.8,40.2,41.8z M75.2,34c-2.9-5.6-5.4-10.3-7.8-15
	c-0.4-0.7-0.8-1.5-1.2-2.1C63.9,13.6,52,12.9,50,16.2c-3.3,5.5-6.1,11.4-9.5,17.8C52.4,34,63.3,34,75.2,34z M14.5,34.2
	c5.9,0,10.6,0.1,15.2-0.1c1.1-0.1,2.6-1.2,3.2-2.2c3.1-5.5,6-11.1,9.8-18.3c-5.8,0.8-11.4,0-14,2.3C23.4,20.8,19.6,27.4,14.5,34.2z
	 M74.2,14.9c7.7,19.3,11.1,21.6,26.4,18.4c-2.8-3.7-6-7.1-8-11C88.4,14.8,82.4,12.7,74.2,14.9z M44,71.2c0.3-0.3,0.7-0.5,1-0.8
	c-4-8.9-8-17.8-12.2-26.6c-0.5-1-2-2.1-3-2.2c-4-0.3-8-0.1-13.6-0.1C26.1,52.2,35,61.7,44,71.2z M70.8,70.3c0.4,0.2,0.8,0.4,1.2,0.6
	c8.8-9.4,17.6-18.8,27.6-29.4c-5.6,0-9.4-0.2-13.3,0.1c-1.2,0.1-2.8,1-3.3,2C78.8,52.5,74.8,61.4,70.8,70.3z"/>
<path class="st1" d="M110.9,51.1c-0.9,1.4-1.8,3-3,4.3c-15.7,16.7-31.5,33.4-47.2,50.2c-3.1,3.3-5.6,3.5-8.8,0.1
	C36.2,88.8,20.2,72.1,4.6,54.9C3.1,53.4,3,48.9,4.2,47C9.7,38.8,15.8,31,22.1,23.3c1.3-1.6,4.1-2.7,6.3-2.7c18.7-0.2,37.3-0.2,56,0
	c2,0,4.8,0.8,5.9,2.2c6.5,8,12.6,16.4,18.8,24.7C109.7,48.4,110.1,49.5,110.9,51.1z M38.7,55.1C44.8,68.5,50.4,80.9,56.4,94
	c6.1-13.4,11.7-25.9,17.5-38.9C61.8,55.1,50.9,55.1,38.7,55.1z M73.7,47.4c-2.9-5.6-5.4-10.3-7.8-15c-0.4-0.7-0.8-1.5-1.2-2.1
	c-2.2-3.2-14.1-3.9-16.1-0.6C45.2,35.1,42.4,41,39,47.4C50.9,47.4,61.8,47.4,73.7,47.4z M13,47.6c5.9,0,10.6,0.1,15.2-0.1
	c1.1-0.1,2.6-1.2,3.2-2.2c3.1-5.5,6-11.1,9.8-18.3c-5.8,0.8-11.4,0-14,2.3C21.9,34.2,18.1,40.8,13,47.6z M72.7,28.3
	C80.4,47.6,83.8,49.9,99,46.7c-2.8-3.7-6-7.1-8-11C86.9,28.2,80.9,26.1,72.7,28.3z M42.5,84.6c0.3-0.3,0.7-0.5,1-0.8
	c-4-8.9-8-17.8-12.2-26.6c-0.5-1-2-2.1-3-2.2c-4-0.3-8-0.1-13.6-0.1C24.6,65.6,33.5,75.1,42.5,84.6z M69.3,83.7
	c0.4,0.2,0.8,0.4,1.2,0.6c8.8-9.4,17.6-18.8,27.6-29.4c-5.6,0-9.4-0.2-13.3,0.1c-1.2,0.1-2.8,1-3.3,2C77.3,65.9,73.3,74.8,69.3,83.7
	z"/>
<path class="st2" d="M109.9,42c-0.9,1.4-1.8,3-3,4.3C91.2,63.1,75.4,79.7,59.7,96.5c-3.1,3.3-5.6,3.5-8.8,0.1
	C35.1,79.7,19.1,62.9,3.5,45.8c-1.4-1.6-1.6-6.1-0.3-7.9C8.7,29.7,14.8,21.8,21,14.1c1.3-1.6,4.1-2.7,6.3-2.7
	c18.7-0.2,37.3-0.2,56,0c2,0,4.8,0.8,5.9,2.2c6.5,8,12.6,16.4,18.8,24.7C108.7,39.2,109.1,40.4,109.9,42z M37.7,46
	c6.1,13.4,11.7,25.7,17.7,38.9C61.4,71.4,67,59,72.9,46C60.8,46,49.8,46,37.7,46z M72.6,38.2c-2.9-5.6-5.4-10.3-7.8-15
	c-0.4-0.7-0.8-1.5-1.2-2.1c-2.2-3.2-14.1-3.9-16.1-0.6C44.1,26,41.3,31.9,38,38.2C49.9,38.2,60.7,38.2,72.6,38.2z M11.9,38.5
	c5.9,0,10.6,0.1,15.2-0.1c1.1-0.1,2.6-1.2,3.2-2.2c3.1-5.5,6-11.1,9.8-18.3c-5.8,0.8-11.4,0-14,2.3C20.8,25.1,17.1,31.6,11.9,38.5z
	 M71.6,19.2C79.3,38.4,82.7,40.8,98,37.6c-2.8-3.7-6-7.1-8-11C85.9,19,79.9,16.9,71.6,19.2z M41.4,75.5c0.3-0.3,0.7-0.5,1-0.8
	c-4-8.9-8-17.8-12.2-26.6c-0.5-1-2-2.1-3-2.2c-4-0.3-8-0.1-13.6-0.1C23.6,56.4,32.5,66,41.4,75.5z M68.2,74.6
	c0.4,0.2,0.8,0.4,1.2,0.6C78.2,65.8,87,56.4,97,45.8c-5.6,0-9.4-0.2-13.3,0.1c-1.2,0.1-2.8,1-3.3,2C76.3,56.7,72.3,65.7,68.2,74.6z"
	/>
<path d="M111.9,46.2c-0.9,1.4-1.8,3-3,4.3c-15.7,16.7-31.5,33.4-47.2,50.2c-3.1,3.3-5.6,3.5-8.8,0.1C37.1,83.9,21.1,67.1,5.5,50
	c-1.4-1.6-1.6-6.1-0.3-7.9C10.7,33.9,16.8,26,23,18.3c1.3-1.6,4.1-2.7,6.3-2.7c18.7-0.2,37.3-0.2,56,0c2,0,4.8,0.8,5.9,2.2
	c6.5,8,12.6,16.4,18.8,24.7C110.7,43.4,111.1,44.6,111.9,46.2z M39.7,50.2C45.7,63.6,51.4,75.9,57.3,89C63.4,75.6,69,63.2,74.9,50.2
	C62.8,50.2,51.8,50.2,39.7,50.2z M74.6,42.4c-2.9-5.6-5.4-10.3-7.8-15c-0.4-0.7-0.8-1.5-1.2-2.1c-2.2-3.2-14.1-3.9-16.1-0.6
	c-3.3,5.5-6.1,11.4-9.5,17.8C51.9,42.4,62.7,42.4,74.6,42.4z M13.9,42.7c5.9,0,10.6,0.1,15.2-0.1c1.1-0.1,2.6-1.2,3.2-2.2
	c3.1-5.5,6-11.1,9.8-18.3c-5.8,0.8-11.4,0-14,2.3C22.8,29.2,19.1,35.8,13.9,42.7z M73.6,23.4C81.3,42.6,84.7,45,100,41.8
	c-2.8-3.7-6-7.1-8-11C87.9,23.2,81.9,21.1,73.6,23.4z M43.4,79.7c0.3-0.3,0.7-0.5,1-0.8c-4-8.9-8-17.8-12.2-26.6c-0.5-1-2-2.1-3-2.2
	c-4-0.3-8-0.1-13.6-0.1C25.6,60.6,34.5,70.1,43.4,79.7z M70.2,78.8c0.4,0.2,0.8,0.4,1.2,0.6C80.2,70,89,60.6,99,50
	c-5.6,0-9.4-0.2-13.3,0.1c-1.2,0.1-2.8,1-3.3,2C78.3,60.9,74.3,69.9,70.2,78.8z"/>
</svg>
