<?xml version="1.0" encoding="utf-8"?>
<!-- Generator: Adobe Illustrator 23.0.1, SVG Export Plug-In . SVG Version: 6.00 Build 0)  -->
<svg version="1.1" id="Layer_1" xmlns="http://www.w3.org/2000/svg" xmlns:xlink="http://www.w3.org/1999/xlink" x="0px" y="0px"
	 viewBox="0 0 148.6 148.2" style="enable-background:new 0 0 148.6 148.2;" xml:space="preserve">
<style type="text/css">
	.st0{fill:#FFFF33;}
	.st1{fill:#E53ED5;}
	.st2{fill:#2891DA;}
</style>
<path class="st0" d="M128.1,56c-0.9,1.4-1.7,3-2.9,4.2c-15.3,16.4-30.8,32.6-46.1,49c-3,3.2-5.5,3.4-8.6,0.1
	C55.1,92.8,39.4,76.4,24.2,59.7c-1.4-1.5-1.5-5.9-0.3-7.7c5.4-8,11.3-15.7,17.4-23.2c1.3-1.6,4-2.6,6.1-2.7
	c18.2-0.2,36.5-0.2,54.7,0c2,0,4.7,0.8,5.8,2.2c6.3,7.9,12.3,16,18.3,24.1C126.9,53.2,127.3,54.4,128.1,56z M57.6,59.9
	C63.5,72.9,69,85,74.8,97.8c5.9-13.1,11.4-25.3,17.1-38C80.1,59.9,69.5,59.9,57.6,59.9z M91.7,52.3c-2.8-5.4-5.2-10-7.6-14.6
	c-0.4-0.7-0.7-1.4-1.2-2.1c-2.1-3.1-13.8-3.8-15.7-0.6c-3.3,5.4-6,11.2-9.3,17.4C69.5,52.3,80.1,52.3,91.7,52.3z M32.4,52.5
	c5.8,0,10.3,0.1,14.8-0.1c1.1-0.1,2.5-1.1,3.1-2.1c3-5.3,5.9-10.8,9.6-17.9c-5.7,0.8-11.1,0-13.7,2.3C41.1,39.4,37.4,45.8,32.4,52.5
	z M90.7,33.7c7.5,18.8,10.8,21.1,25.8,18c-2.7-3.6-5.8-6.9-7.9-10.7C104.6,33.5,98.8,31.5,90.7,33.7z M61.2,88.7
	c0.3-0.3,0.7-0.5,1-0.8c-3.9-8.7-7.8-17.4-11.9-26c-0.5-1-1.9-2.1-3-2.2c-3.9-0.3-7.9-0.1-13.3-0.1C43.8,70.1,52.5,79.4,61.2,88.7z
	 M87.4,87.8c0.4,0.2,0.8,0.4,1.2,0.6c8.6-9.2,17.2-18.4,26.9-28.7c-5.4,0-9.2-0.2-13,0.1c-1.1,0.1-2.7,1-3.2,2
	C95.3,70.3,91.4,79.1,87.4,87.8z"/>
<path class="st1" d="M126.7,69c-0.9,1.4-1.7,3-2.9,4.2c-15.3,16.4-30.8,32.6-46.1,49c-3,3.2-5.5,3.4-8.6,0.1
	C53.6,105.8,38,89.5,22.7,72.7c-1.4-1.5-1.5-5.9-0.3-7.7c5.4-8,11.3-15.7,17.4-23.2c1.3-1.6,4-2.6,6.1-2.7c18.2-0.2,36.5-0.2,54.7,0
	c2,0,4.7,0.8,5.8,2.2c6.3,7.9,12.3,16,18.3,24.1C125.5,66.3,125.9,67.5,126.7,69z M56.1,72.9C62,86,67.5,98,73.4,110.9
	c5.9-13.1,11.4-25.3,17.1-38C78.7,72.9,68,72.9,56.1,72.9z M90.2,65.3c-2.8-5.4-5.2-10-7.6-14.6c-0.4-0.7-0.7-1.4-1.2-2.1
	c-2.1-3.1-13.8-3.8-15.7-0.6c-3.3,5.4-6,11.2-9.3,17.4C68,65.3,78.7,65.3,90.2,65.3z M31,65.6c5.8,0,10.3,0.1,14.8-0.1
	c1.1-0.1,2.5-1.1,3.1-2.1c3-5.3,5.9-10.8,9.6-17.9c-5.7,0.8-11.1,0-13.7,2.3C39.6,52.5,36,58.9,31,65.6z M89.3,46.7
	c7.5,18.8,10.8,21.1,25.8,18c-2.7-3.6-5.8-6.9-7.9-10.7C103.2,46.6,97.3,44.5,89.3,46.7z M59.8,101.7c0.3-0.3,0.7-0.5,1-0.8
	c-3.9-8.7-7.8-17.4-11.9-26c-0.5-1-1.9-2.1-3-2.2c-3.9-0.3-7.9-0.1-13.3-0.1C42.3,83.1,51.1,92.4,59.8,101.7z M86,100.8
	c0.4,0.2,0.8,0.4,1.2,0.6c8.6-9.2,17.2-18.4,26.9-28.7c-5.4,0-9.2-0.2-13,0.1c-1.1,0.1-2.7,1-3.2,2C93.8,83.4,89.9,92.1,86,100.8z"
	/>
<path class="st2" d="M125.6,60.1c-0.9,1.4-1.7,3-2.9,4.2c-15.3,16.4-30.8,32.6-46.1,49c-3,3.2-5.5,3.4-8.6,0.1
	C52.6,96.9,36.9,80.5,21.7,63.8c-1.4-1.5-1.5-5.9-0.3-7.7c5.4-8,11.3-15.7,17.4-23.2c1.3-1.6,4-2.6,6.1-2.7
	c18.2-0.2,36.5-0.2,54.7,0c2,0,4.7,0.8,5.8,2.2c6.3,7.9,12.3,16,18.3,24.1C124.4,57.4,124.8,58.5,125.6,60.1z M55.1,64
	c5.9,13.1,11.4,25.1,17.3,38c5.9-13.1,11.4-25.3,17.1-38C77.6,64,67,64,55.1,64z M89.2,56.4c-2.8-5.4-5.2-10-7.6-14.6
	c-0.4-0.7-0.7-1.4-1.2-2.1c-2.1-3.1-13.8-3.8-15.7-0.6c-3.3,5.4-6,11.2-9.3,17.4C67,56.4,77.6,56.4,89.2,56.4z M29.9,56.6
	c5.8,0,10.3,0.1,14.8-0.1c1.1-0.1,2.5-1.1,3.1-2.1c3-5.3,5.9-10.8,9.6-17.9c-5.7,0.8-11.1,0-13.7,2.3C38.6,43.5,35,50,29.9,56.6z
	 M88.2,37.8c7.5,18.8,10.8,21.1,25.8,18c-2.7-3.6-5.8-6.9-7.9-10.7C102.2,37.6,96.3,35.6,88.2,37.8z M58.7,92.8
	c0.3-0.3,0.7-0.5,1-0.8c-3.9-8.7-7.8-17.4-11.9-26c-0.5-1-1.9-2.1-3-2.2c-3.9-0.3-7.9-0.1-13.3-0.1C41.3,74.2,50,83.5,58.7,92.8z
	 M84.9,91.9c0.4,0.2,0.8,0.4,1.2,0.6c8.6-9.2,17.2-18.4,26.9-28.7c-5.4,0-9.2-0.2-13,0.1c-1.1,0.1-2.7,1-3.2,2
	C92.8,74.5,88.9,83.2,84.9,91.9z"/>
<path d="M127.6,64.2c-0.9,1.4-1.7,3-2.9,4.2c-15.3,16.4-30.8,32.6-46.1,49c-3,3.2-5.5,3.4-8.6,0.1C54.5,101,38.9,84.6,23.7,67.9
	c-1.4-1.5-1.5-5.9-0.3-7.7c5.4-8,11.3-15.7,17.4-23.2c1.3-1.6,4-2.6,6.1-2.7c18.2-0.2,36.5-0.2,54.7,0c2,0,4.7,0.8,5.8,2.2
	c6.3,7.9,12.3,16,18.3,24.1C126.4,61.5,126.8,62.6,127.6,64.2z M57,68.1c5.9,13.1,11.4,25.1,17.3,38c5.9-13.1,11.4-25.3,17.1-38
	C79.6,68.1,68.9,68.1,57,68.1z M91.2,60.5c-2.8-5.4-5.2-10-7.6-14.6c-0.4-0.7-0.7-1.4-1.2-2.1c-2.1-3.1-13.8-3.8-15.7-0.6
	c-3.3,5.4-6,11.2-9.3,17.4C68.9,60.5,79.6,60.5,91.2,60.5z M31.9,60.7c5.8,0,10.3,0.1,14.8-0.1c1.1-0.1,2.5-1.1,3.1-2.1
	c3-5.3,5.9-10.8,9.6-17.9c-5.7,0.8-11.1,0-13.7,2.3C40.6,47.6,36.9,54,31.9,60.7z M90.2,41.9c7.5,18.8,10.8,21.1,25.8,18
	c-2.7-3.6-5.8-6.9-7.9-10.7C104.1,41.7,98.3,39.7,90.2,41.9z M60.7,96.9c0.3-0.3,0.7-0.5,1-0.8c-3.9-8.7-7.8-17.4-11.9-26
	c-0.5-1-1.9-2.1-3-2.2c-3.9-0.3-7.9-0.1-13.3-0.1C43.3,78.3,52,87.6,60.7,96.9z M86.9,96c0.4,0.2,0.8,0.4,1.2,0.6
	c8.6-9.2,17.2-18.4,26.9-28.7c-5.4,0-9.2-0.2-13,0.1c-1.1,0.1-2.7,1-3.2,2C94.7,78.6,90.8,87.3,86.9,96z"/>
</svg>
