<?xml version="1.0" encoding="utf-8"?>
<!-- Generator: Adobe Illustrator 23.0.1, SVG Export Plug-In . SVG Version: 6.00 Build 0)  -->
<svg version="1.1" id="Layer_1" xmlns="http://www.w3.org/2000/svg" xmlns:xlink="http://www.w3.org/1999/xlink" x="0px" y="0px"
	 viewBox="0 0 148.6 148.2" style="enable-background:new 0 0 148.6 148.2;" xml:space="preserve">
<style type="text/css">
	.st0{fill:#FFFF33;}
	.st1{fill:#E53ED5;}
	.st2{fill:#2891DA;}
	.st3{fill:#FFFFFF;}
</style>
<rect width="148.2" height="148.2"/>
<path class="st0" d="M127.1,59c-0.9,1.4-1.7,3-2.9,4.2c-15.3,16.4-30.8,32.6-46.1,49c-3,3.2-5.5,3.4-8.6,0.1
	C54.1,95.8,38.4,79.4,23.2,62.7c-1.4-1.5-1.5-5.9-0.3-7.7c5.4-8,11.3-15.7,17.4-23.2c1.3-1.6,4-2.6,6.1-2.7
	c18.2-0.2,36.5-0.2,54.7,0c2,0,4.7,0.8,5.8,2.2c6.3,7.9,12.3,16,18.3,24.1C125.9,56.2,126.3,57.4,127.1,59z M56.6,62.9
	c5.9,13,11.4,25.1,17.2,37.9c5.9-13.1,11.4-25.3,17.1-38C79.1,62.9,68.5,62.9,56.6,62.9z M90.7,55.3c-2.8-5.4-5.2-10-7.6-14.6
	c-0.4-0.7-0.7-1.4-1.2-2.1c-2.1-3.1-13.8-3.8-15.7-0.6c-3.3,5.4-6,11.2-9.3,17.4C68.5,55.3,79.1,55.3,90.7,55.3z M31.4,55.5
	c5.8,0,10.3,0.1,14.8-0.1c1.1-0.1,2.5-1.1,3.1-2.1c3-5.3,5.9-10.8,9.6-17.9c-5.7,0.8-11.1,0-13.7,2.3C40.1,42.4,36.4,48.8,31.4,55.5
	z M89.7,36.7c7.5,18.8,10.8,21.1,25.8,18c-2.7-3.6-5.8-6.9-7.9-10.7C103.6,36.5,97.8,34.5,89.7,36.7z M60.2,91.7
	c0.3-0.3,0.7-0.5,1-0.8c-3.9-8.7-7.8-17.4-11.9-26c-0.5-1-1.9-2.1-3-2.2c-3.9-0.3-7.9-0.1-13.3-0.1C42.8,73.1,51.5,82.4,60.2,91.7z
	 M86.4,90.8c0.4,0.2,0.8,0.4,1.2,0.6c8.6-9.2,17.2-18.4,26.9-28.7c-5.4,0-9.2-0.2-13,0.1c-1.1,0.1-2.7,1-3.2,2
	C94.3,73.3,90.4,82.1,86.4,90.8z"/>
<path class="st1" d="M126.7,67c-0.9,1.4-1.7,3-2.9,4.2c-15.3,16.4-30.8,32.6-46.1,49c-3,3.2-5.5,3.4-8.6,0.1
	C53.6,103.8,38,87.5,22.7,70.7c-1.4-1.5-1.5-5.9-0.3-7.7c5.4-8,11.3-15.7,17.4-23.2c1.3-1.6,4-2.6,6.1-2.7c18.2-0.2,36.5-0.2,54.7,0
	c2,0,4.7,0.8,5.8,2.2c6.3,7.9,12.3,16,18.3,24.1C125.5,64.3,125.9,65.5,126.7,67z M56.1,70.9C62,84,67.5,96,73.4,108.9
	c5.9-13.1,11.4-25.3,17.1-38C78.7,70.9,68,70.9,56.1,70.9z M90.2,63.3c-2.8-5.4-5.2-10-7.6-14.6c-0.4-0.7-0.7-1.4-1.2-2.1
	c-2.1-3.1-13.8-3.8-15.7-0.6c-3.3,5.4-6,11.2-9.3,17.4C68,63.3,78.7,63.3,90.2,63.3z M31,63.6c5.8,0,10.3,0.1,14.8-0.1
	c1.1-0.1,2.5-1.1,3.1-2.1c3-5.3,5.9-10.8,9.6-17.9c-5.7,0.8-11.1,0-13.7,2.3C39.6,50.5,36,56.9,31,63.6z M89.3,44.7
	c7.5,18.8,10.8,21.1,25.8,18c-2.7-3.6-5.8-6.9-7.9-10.7C103.2,44.6,97.3,42.5,89.3,44.7z M59.8,99.7c0.3-0.3,0.7-0.5,1-0.8
	c-3.9-8.7-7.8-17.4-11.9-26c-0.5-1-1.9-2.1-3-2.2c-3.9-0.3-7.9-0.1-13.3-0.1C42.3,81.1,51.1,90.4,59.8,99.7z M86,98.8
	c0.4,0.2,0.8,0.4,1.2,0.6c8.6-9.2,17.2-18.4,26.9-28.7c-5.4,0-9.2-0.2-13,0.1c-1.1,0.1-2.7,1-3.2,2C93.8,81.4,89.9,90.1,86,98.8z"/>
<path class="st2" d="M126.6,61.1c-0.9,1.4-1.7,3-2.9,4.2c-15.3,16.4-30.8,32.6-46.1,49c-3,3.2-5.5,3.4-8.6,0.1
	C53.6,97.9,37.9,81.5,22.7,64.8c-1.4-1.5-1.5-5.9-0.3-7.7c5.4-8,11.3-15.7,17.4-23.2c1.3-1.6,4-2.6,6.1-2.7
	c18.2-0.2,36.5-0.2,54.7,0c2,0,4.7,0.8,5.8,2.2c6.3,7.9,12.3,16,18.3,24.1C125.4,58.4,125.8,59.5,126.6,61.1z M56.1,65
	c5.9,13.1,11.4,25.1,17.3,38c5.9-13.1,11.4-25.3,17.1-38C78.6,65,68,65,56.1,65z M90.2,57.4c-2.8-5.4-5.2-10-7.6-14.6
	c-0.4-0.7-0.7-1.4-1.2-2.1c-2.1-3.1-13.8-3.8-15.7-0.6c-3.3,5.4-6,11.2-9.3,17.4C68,57.4,78.6,57.4,90.2,57.4z M30.9,57.6
	c5.8,0,10.3,0.1,14.8-0.1c1.1-0.1,2.5-1.1,3.1-2.1c3-5.3,5.9-10.8,9.6-17.9c-5.7,0.8-11.1,0-13.7,2.3C39.6,44.5,36,51,30.9,57.6z
	 M89.2,38.8c7.5,18.8,10.8,21.1,25.8,18c-2.7-3.6-5.8-6.9-7.9-10.7C103.2,38.6,97.3,36.6,89.2,38.8z M59.7,93.8
	c0.3-0.3,0.7-0.5,1-0.8c-3.9-8.7-7.8-17.4-11.9-26c-0.5-1-1.9-2.1-3-2.2c-3.9-0.3-7.9-0.1-13.3-0.1C42.3,75.2,51,84.5,59.7,93.8z
	 M85.9,92.9c0.4,0.2,0.8,0.4,1.2,0.6c8.6-9.2,17.2-18.4,26.9-28.7c-5.4,0-9.2-0.2-13,0.1c-1.1,0.1-2.7,1-3.2,2
	C93.8,75.5,89.9,84.2,85.9,92.9z"/>
<path class="st3" d="M127.6,64.2c-0.9,1.4-1.7,3-2.9,4.2c-15.3,16.4-30.8,32.6-46.1,49c-3,3.2-5.5,3.4-8.6,0.1
	C54.5,101,38.9,84.6,23.7,67.9c-1.4-1.5-1.5-5.9-0.3-7.7c5.4-8,11.3-15.7,17.4-23.2c1.3-1.6,4-2.6,6.1-2.7c18.2-0.2,36.5-0.2,54.7,0
	c2,0,4.7,0.8,5.8,2.2c6.3,7.9,12.3,16,18.3,24.1C126.4,61.5,126.8,62.6,127.6,64.2z M57,68.1c5.9,13.1,11.4,25.1,17.3,38
	c5.9-13.1,11.4-25.3,17.1-38C79.6,68.1,68.9,68.1,57,68.1z M91.2,60.5c-2.8-5.4-5.2-10-7.6-14.6c-0.4-0.7-0.7-1.4-1.2-2.1
	c-2.1-3.1-13.8-3.8-15.7-0.6c-3.3,5.4-6,11.2-9.3,17.4C68.9,60.5,79.6,60.5,91.2,60.5z M31.9,60.7c5.8,0,10.3,0.1,14.8-0.1
	c1.1-0.1,2.5-1.1,3.1-2.1c3-5.3,5.9-10.8,9.6-17.9c-5.7,0.8-11.1,0-13.7,2.3C40.6,47.6,36.9,54,31.9,60.7z M90.2,41.9
	C97.7,60.7,101,63,116,59.9c-2.7-3.6-5.8-6.9-7.9-10.7C104.1,41.7,98.3,39.7,90.2,41.9z M60.7,96.9c0.3-0.3,0.7-0.5,1-0.8
	c-3.9-8.7-7.8-17.4-11.9-26c-0.5-1-1.9-2.1-3-2.2c-3.9-0.3-7.9-0.1-13.3-0.1C43.3,78.3,52,87.6,60.7,96.9z M86.9,96
	c0.4,0.2,0.8,0.4,1.2,0.6c8.6-9.2,17.2-18.4,26.9-28.7c-5.4,0-9.2-0.2-13,0.1c-1.1,0.1-2.7,1-3.2,2C94.7,78.6,90.8,87.3,86.9,96z"/>
</svg>
